<svg xmlns="http://www.w3.org/2000/svg" viewBox="0 0 106 106"><defs><style>.cls-1{fill:#ffc868;}.cls-2{fill:#ff7575;}.cls-3{opacity:0.1;}.cls-4{fill:#171c1f;}.cls-5{opacity:0.25;}</style></defs><title>manilla-envelope</title><g id="Manilla-Envelope"><g id="Fill"><rect class="cls-1" x="15" y="2" width="76" height="102" rx="6" ry="6"/></g><g id="Red"><path class="cls-2" d="M53,13a3,3,0,1,0-3-3A3,3,0,0,0,53,13Zm0,8a3,3,0,1,0,3,3A3,3,0,0,0,53,21Z"/></g><g id="Shadows" class="cls-3"><path d="M85,100H21a4,4,0,0,1-4-4v2a4,4,0,0,0,4,4H85a4,4,0,0,0,4-4V96A4,4,0,0,1,85,100ZM57,26a4,4,0,0,0-.14-1,4,4,0,0,1-7.72,0A4,4,0,1,0,57,26ZM53,16a4,4,0,0,0,3.86-5,4,4,0,0,1-7.72,0A4,4,0,0,0,53,16ZM89,5a1,1,0,0,0-.71.29L75.59,18H30.41L17.71,5.29a1,1,0,1,0-1.41,1.41h0l13,13A1,1,0,0,0,30,20H76a1,1,0,0,0,.71-.29l13-13A1,1,0,0,0,89,5Z"/></g><g id="Inner_Lines_1" data-name="Inner Lines 1"><path class="cls-4" d="M89,3a1,1,0,0,0-.71.29L75.59,16H54V13.86a4,4,0,1,0-2,0V16H30.41L17.71,3.29a1,1,0,1,0-1.41,1.41h0l13,13A1,1,0,0,0,30,18H52v2.14a4,4,0,1,0,2,0V18H76a1,1,0,0,0,.71-.29h0l13-13A1,1,0,0,0,89,3ZM51,10a2,2,0,1,1,2,2A2,2,0,0,1,51,10Zm4,14a2,2,0,1,1-2-2A2,2,0,0,1,55,24Z"/></g><g id="Inner_Lines_2" data-name="Inner Lines 2" class="cls-5"><path class="cls-4" d="M35,58H27v2h8ZM65,88H77V86H65ZM30,64H40V62H30ZM75,82v2h4V82ZM71,44H63v2h8Zm-6-4H61v2h4Z"/></g><g id="Outline"><path class="cls-4" d="M85,0H21a8,8,0,0,0-8,8V98a8,8,0,0,0,8,8H85a8,8,0,0,0,8-8V8A8,8,0,0,0,85,0Zm4,98a4,4,0,0,1-4,4H21a4,4,0,0,1-4-4V8a4,4,0,0,1,4-4H85a4,4,0,0,1,4,4Z"/></g></g></svg>