<?xml version="1.0" encoding="UTF-8" standalone="no"?>
<!-- Created with Inkscape (http://www.inkscape.org/) -->

<svg
   width="94.167847mm"
   height="94.414688mm"
   viewBox="0 0 94.167847 94.414688"
   version="1.1"
   id="svg5"
   inkscape:version="1.2.2 (1:1.2.2+202212051550+b0a8486541)"
   sodipodi:docname="tileset.svg"
   xmlns:inkscape="http://www.inkscape.org/namespaces/inkscape"
   xmlns:sodipodi="http://sodipodi.sourceforge.net/DTD/sodipodi-0.dtd"
   xmlns="http://www.w3.org/2000/svg"
   xmlns:svg="http://www.w3.org/2000/svg">
  <sodipodi:namedview
     id="namedview7"
     pagecolor="#ffffff"
     bordercolor="#666666"
     borderopacity="1.0"
     inkscape:showpageshadow="2"
     inkscape:pageopacity="0.0"
     inkscape:pagecheckerboard="0"
     inkscape:deskcolor="#d1d1d1"
     inkscape:document-units="mm"
     showgrid="false"
     inkscape:zoom="0.98268799"
     inkscape:cx="2266.7419"
     inkscape:cy="287.98561"
     inkscape:window-width="1920"
     inkscape:window-height="963"
     inkscape:window-x="0"
     inkscape:window-y="44"
     inkscape:window-maximized="1"
     inkscape:current-layer="layer1"
     inkscape:lockguides="false"
     showguides="true" />
  <defs
     id="defs2" />
  <g
     inkscape:label="Capa 1"
     inkscape:groupmode="layer"
     id="layer1"
     transform="translate(-444.64881,0.23395809)">
    <rect
       style="fill:#c5e1a5;stroke:none;stroke-width:3.9997;stroke-dasharray:3.9997, 3.9997"
       id="rect337-6-7"
       width="94.16787"
       height="94.180725"
       x="444.6488"
       y="4.3817516e-07" />
    <path
       id="path602"
       style="fill:#7cb342;stroke:none;stroke-width:3.97798;stroke-dasharray:3.97798, 3.97798"
       d="m 491.75873,0.2952091 a 46.774951,46.774951 0 0 0 -46.77487,46.7748679 46.774951,46.774951 0 0 0 46.77487,46.774875 46.774951,46.774951 0 0 0 0.0139,0 V 0.2952091 a 46.774951,46.774951 0 0 0 -0.0139,0 z" />
    <path
       id="path604"
       style="fill:#9ccc65;stroke:none;stroke-width:2;stroke-dasharray:2, 2"
       d="m 515.04905,-0.23395783 a 23.516953,23.516953 0 0 0 -23.51691,23.51691083 23.516953,23.516953 0 0 0 23.51691,23.516915 23.516953,23.516953 0 0 0 0.007,0 V -0.23395783 a 23.516953,23.516953 0 0 0 -0.007,0 z" />
    <path
       id="path619"
       style="fill:#9ccc65;stroke:none;stroke-width:2;stroke-dasharray:2, 2"
       d="m 515.05605,46.799868 a 23.516953,23.516953 0 0 0 -23.51691,23.516911 23.516953,23.516953 0 0 0 23.51691,23.516915 23.516953,23.516953 0 0 0 0.007,0 V 46.799868 a 23.516953,23.516953 0 0 0 -0.007,0 z" />
    <rect
       style="fill:#aed581;stroke:none;stroke-width:0.999994;stroke-dasharray:0.999994, 0.999994"
       id="rect621"
       width="23.545"
       height="23.545"
       x="515.06305"
       y="23.254868" />
    <rect
       style="fill:#aed581;stroke:none;stroke-width:0.999994;stroke-dasharray:0.999994, 0.999994"
       id="rect636"
       width="23.545"
       height="23.545"
       x="515.05603"
       y="70.288696" />
    <path
       id="path638"
       style="fill:#9ccc65;stroke-width:1.0006;stroke-dasharray:1.0006, 1.0006"
       d="m 538.60824,46.743333 v 23.55941 h -23.55942 c 23.55807,-23.557971 1.3e-4,3.6e-4 23.55942,-23.55941 z"
       sodipodi:nodetypes="cccc" />
  </g>
</svg>
