<?xml version="1.0" encoding="UTF-8" standalone="no"?>
<svg
   viewBox="0 0 1996 514"
   version="1.1"
   id="svg8364"
   sodipodi:docname="Docs.svg"
   inkscape:version="1.2.2 (1:1.2.2+202305151915+b0a8486541)"
   xmlns:inkscape="http://www.inkscape.org/namespaces/inkscape"
   xmlns:sodipodi="http://sodipodi.sourceforge.net/DTD/sodipodi-0.dtd"
   xmlns="http://www.w3.org/2000/svg"
   xmlns:svg="http://www.w3.org/2000/svg">
  <sodipodi:namedview
     id="namedview8366"
     pagecolor="#ffffff"
     bordercolor="#666666"
     borderopacity="1.0"
     inkscape:showpageshadow="2"
     inkscape:pageopacity="0.0"
     inkscape:pagecheckerboard="0"
     inkscape:deskcolor="#d1d1d1"
     showgrid="false"
     inkscape:zoom="0.65881764"
     inkscape:cx="1085.2776"
     inkscape:cy="256.52015"
     inkscape:window-width="1920"
     inkscape:window-height="963"
     inkscape:window-x="1920"
     inkscape:window-y="44"
     inkscape:window-maximized="1"
     inkscape:current-layer="svg8364" />
  <defs
     id="defs8182">
    <style
       id="style8180">.cls-1{fill:#eaeaea;}.cls-2{fill:#ddd;}.cls-3{fill:#dcae1e;}.cls-4{fill:#fff;}.cls-5{fill:#00303f;}</style>
  </defs>
  <title
     id="title8184">Docs</title>
  <rect
     class="cls-1"
     width="1996"
     height="514"
     id="rect8186"
     x="0"
     y="0" />
  <rect
     class="cls-2"
     x="1182.88"
     y="177.07001"
     width="141.45"
     height="67.900002"
     id="rect8188" />
  <rect
     class="cls-2"
     x="1103.5601"
     y="87.400002"
     width="141.45"
     height="67.900002"
     id="rect8190" />
  <rect
     class="cls-2"
     y="87.400002"
     width="60.630001"
     height="67.900002"
     id="rect8194"
     x="0" />
  <rect
     class="cls-2"
     x="257.57001"
     y="87.400002"
     width="141.45"
     height="67.900002"
     id="rect8196" />
  <rect
     class="cls-2"
     x="88.370003"
     y="87.400002"
     width="141.45"
     height="67.900002"
     id="rect8198" />
  <rect
     class="cls-2"
     x="595.96002"
     y="87.400002"
     width="141.47"
     height="67.900002"
     id="rect8200" />
  <rect
     class="cls-2"
     x="426.76999"
     y="87.400002"
     width="141.45"
     height="67.900002"
     id="rect8202" />
  <rect
     class="cls-2"
     x="507.87"
     y="177.07001"
     width="141.45"
     height="67.900002"
     id="rect8204" />
  <rect
     class="cls-2"
     x="339.12"
     y="177.07001"
     width="141.45"
     height="67.900002"
     id="rect8206" />
  <rect
     class="cls-2"
     x="934.35999"
     y="87.400002"
     width="141.45"
     height="67.900002"
     id="rect8208" />
  <rect
     class="cls-2"
     x="765.15997"
     y="87.400002"
     width="141.45"
     height="67.900002"
     id="rect8210" />
  <rect
     class="cls-2"
     x="845.38"
     y="177.07001"
     width="141.45"
     height="67.900002"
     id="rect8212" />
  <rect
     class="cls-2"
     x="676.63"
     y="177.07001"
     width="141.45"
     height="67.900002"
     id="rect8214" />
  <rect
     class="cls-2"
     x="1014.13"
     y="177.07001"
     width="141.45"
     height="67.900002"
     id="rect8216" />
  <rect
     class="cls-2"
     x="170.37"
     y="177.07001"
     width="141.45"
     height="67.900002"
     id="rect8218" />
  <rect
     class="cls-2"
     x="1.62"
     y="177.07001"
     width="141.45"
     height="67.900002"
     id="rect8220" />
  <rect
     class="cls-2"
     x="1182.88"
     y="357.64001"
     width="141.45"
     height="67.900002"
     id="rect8222" />
  <rect
     class="cls-2"
     x="1103.5601"
     y="267.97"
     width="141.45"
     height="67.900002"
     id="rect8224" />
  <rect
     class="cls-2"
     y="267.97"
     width="60.630001"
     height="67.900002"
     id="rect8228"
     x="0" />
  <rect
     class="cls-2"
     x="257.57001"
     y="267.97"
     width="141.45"
     height="67.900002"
     id="rect8230" />
  <rect
     class="cls-2"
     x="88.370003"
     y="267.97"
     width="141.45"
     height="67.900002"
     id="rect8232" />
  <rect
     class="cls-2"
     x="595.96002"
     y="267.97"
     width="141.47"
     height="67.900002"
     id="rect8234" />
  <rect
     class="cls-2"
     x="426.76999"
     y="267.97"
     width="141.45"
     height="67.900002"
     id="rect8236" />
  <rect
     class="cls-2"
     x="507.87"
     y="357.64001"
     width="141.45"
     height="67.900002"
     id="rect8238" />
  <rect
     class="cls-2"
     x="339.12"
     y="357.64001"
     width="141.45"
     height="67.900002"
     id="rect8240" />
  <rect
     class="cls-2"
     x="934.35999"
     y="267.97"
     width="141.45"
     height="67.900002"
     id="rect8242" />
  <rect
     class="cls-2"
     x="765.15997"
     y="267.97"
     width="141.45"
     height="67.900002"
     id="rect8244" />
  <rect
     class="cls-2"
     x="845.38"
     y="357.64001"
     width="141.45"
     height="67.900002"
     id="rect8246" />
  <rect
     class="cls-2"
     x="676.63"
     y="357.64001"
     width="141.45"
     height="67.900002"
     id="rect8248" />
  <rect
     class="cls-2"
     x="1014.13"
     y="357.64001"
     width="141.45"
     height="67.900002"
     id="rect8250" />
  <rect
     class="cls-2"
     x="170.37"
     y="357.64001"
     width="141.45"
     height="67.900002"
     id="rect8252" />
  <rect
     class="cls-2"
     x="1.62"
     y="357.64001"
     width="141.45"
     height="67.900002"
     id="rect8254" />
  <rect
     class="cls-2"
     x="1103.5601"
     y="446.10001"
     width="141.45"
     height="67.900002"
     id="rect8256" />
  <rect
     class="cls-2"
     x="1272.76"
     y="446.10001"
     width="51.240002"
     height="67.900002"
     id="rect8258" />
  <rect
     class="cls-2"
     y="446.10001"
     width="60.630001"
     height="67.900002"
     id="rect8260"
     x="0" />
  <rect
     class="cls-2"
     x="257.57001"
     y="446.10001"
     width="141.45"
     height="67.900002"
     id="rect8262" />
  <rect
     class="cls-2"
     x="88.370003"
     y="446.10001"
     width="141.45"
     height="67.900002"
     id="rect8264" />
  <rect
     class="cls-2"
     x="595.96002"
     y="446.10001"
     width="141.47"
     height="67.900002"
     id="rect8266" />
  <rect
     class="cls-2"
     x="426.76999"
     y="446.10001"
     width="141.45"
     height="67.900002"
     id="rect8268" />
  <rect
     class="cls-2"
     x="934.35999"
     y="446.10001"
     width="141.45"
     height="67.900002"
     id="rect8270" />
  <rect
     class="cls-2"
     x="765.15997"
     y="446.10001"
     width="141.45"
     height="67.900002"
     id="rect8272" />
  <rect
     class="cls-2"
     x="1182.88"
     width="141.45"
     height="67.900002"
     id="rect8274"
     y="0" />
  <rect
     class="cls-2"
     x="507.87"
     width="141.45"
     height="67.900002"
     id="rect8276"
     y="0" />
  <rect
     class="cls-2"
     x="339.12"
     width="141.45"
     height="67.900002"
     id="rect8278"
     y="0" />
  <rect
     class="cls-2"
     x="845.38"
     width="141.45"
     height="67.900002"
     id="rect8280"
     y="0" />
  <rect
     class="cls-2"
     x="676.63"
     width="141.45"
     height="67.900002"
     id="rect8282"
     y="0" />
  <rect
     class="cls-2"
     x="1014.13"
     width="141.45"
     height="67.900002"
     id="rect8284"
     y="0" />
  <rect
     class="cls-2"
     x="170.37"
     width="141.45"
     height="67.900002"
     id="rect8286"
     y="0" />
  <rect
     class="cls-2"
     x="1.62"
     width="141.45"
     height="67.900002"
     id="rect8288"
     y="0" />
  <rect
     class="cls-3"
     x="92.940002"
     y="69.32"
     width="142.67999"
     height="444.69"
     id="rect8290" />
  <rect
     class="cls-4"
     x="115.3"
     y="112.72"
     width="97.949997"
     height="191.48"
     id="rect8292" />
  <circle
     class="cls-4"
     cx="164.28"
     cy="427.17999"
     r="29.639999"
     id="circle8294" />
  <rect
     class="cls-3"
     x="261.41"
     y="69.32"
     width="142.67999"
     height="444.69"
     id="rect8296" />
  <rect
     class="cls-4"
     x="283.76999"
     y="112.72"
     width="97.949997"
     height="191.48"
     id="rect8298" />
  <circle
     class="cls-4"
     cx="332.75"
     cy="427.17999"
     r="29.639999"
     id="circle8300" />
  <rect
     class="cls-4"
     x="-1116.6396"
     y="-221.00883"
     width="273.51999"
     height="377.48001"
     transform="rotate(-164.78)"
     id="rect8302" />
  <rect
     class="cls-2"
     x="27.445635"
     y="885.71765"
     width="19.059999"
     height="187.92"
     transform="rotate(-74.78)"
     id="rect8304" />
  <rect
     class="cls-2"
     x="-13.368374"
     y="885.71686"
     width="19.059999"
     height="187.92"
     transform="rotate(-74.78)"
     id="rect8306" />
  <rect
     class="cls-2"
     x="-56.378391"
     y="885.70557"
     width="19.059999"
     height="187.92"
     transform="rotate(-74.78)"
     id="rect8308" />
  <rect
     class="cls-2"
     x="-97.182449"
     y="885.70471"
     width="19.059999"
     height="187.92"
     transform="rotate(-74.78)"
     id="rect8310" />
  <rect
     class="cls-2"
     x="-140.20212"
     y="885.70605"
     width="19.059999"
     height="187.92"
     transform="rotate(-74.78)"
     id="rect8312" />
  <rect
     class="cls-2"
     x="68.253357"
     y="1003.7216"
     width="19.059999"
     height="69.900002"
     transform="rotate(-74.78)"
     id="rect8314" />
  <path
     class="cls-3"
     d="m 871.67,159.29 c 0.52,0.14 1.06,0.26 1.6,0.36 a 18,18 0 0 0 20.15,-13.14 l 11.9,-43.75 -9.58,-2.6 -11.9,43.75 a 8,8 0 0 1 -8.86,6 7.75,7.75 0 0 1 -6.18,-9.67 L 885.44,79 a 7.71,7.71 0 1 1 14.88,4 l 9.57,2.6 a 17.63,17.63 0 0 0 -34,-9.26 l -16.64,61.19 a 17.69,17.69 0 0 0 12.45,21.7 z"
     id="path8316" />
  <polygon
     class="cls-3"
     points="733.09,132.58 769.71,382.45 769.71,382.46 778.27,440.81 788.25,508.92 499.34,508.92 450.32,174.45 722.66,61.38 "
     id="polygon8318" />
  <polygon
     class="cls-5"
     points="685.57,139.54 733.09,132.58 734.43,132.38 749.6,130.58 788.26,124.92 806.3,247.97 806.78,251.26 821.77,353.58 821.77,353.6 824.11,369.53 836.89,456.76 844.54,508.92 499.34,508.92 450.32,174.45 666.29,142.79 "
     id="polygon8320" />
  <g
     id="g8928"
     transform="translate(92.12875,-293.27034)">
    <g
       id="g8854">
      <rect
         class="cls-2"
         x="1272.76"
         y="87.400002"
         width="51.240002"
         height="67.900002"
         id="rect8192" />
      <rect
         class="cls-2"
         x="1272.76"
         y="267.97"
         width="51.240002"
         height="67.900002"
         id="rect8226" />
      <rect
         class="cls-4"
         x="-1343.4991"
         y="-913.08374"
         width="273.51999"
         height="377.48001"
         transform="rotate(159.33)"
         id="rect8322" />
      <rect
         class="cls-2"
         x="1112.6279"
         y="645.64966"
         width="187.92"
         height="19.059999"
         transform="rotate(-20.67)"
         id="rect8324" />
      <rect
         class="cls-2"
         x="1112.6309"
         y="686.46368"
         width="187.92"
         height="19.059999"
         transform="rotate(-20.67)"
         id="rect8326" />
      <rect
         class="cls-2"
         x="1112.6261"
         y="729.48193"
         width="187.92"
         height="19.059999"
         transform="rotate(-20.67)"
         id="rect8328" />
      <rect
         class="cls-2"
         x="1112.6326"
         y="770.28656"
         width="187.92"
         height="19.059999"
         transform="rotate(-20.67)"
         id="rect8330" />
      <rect
         class="cls-2"
         x="1112.6279"
         y="813.30487"
         width="187.92"
         height="19.059999"
         transform="rotate(-20.67)"
         id="rect8332" />
      <rect
         class="cls-2"
         x="1230.6333"
         y="604.84418"
         width="69.900002"
         height="19.059999"
         transform="rotate(-20.67)"
         id="rect8334" />
      <path
         class="cls-3"
         d="m 1256.12,184.07213 c 0.51,-0.19 1,-0.41 1.51,-0.65 a 18,18 0 0 0 8.62,-22.45 l -16,-42.42 -9.29,3.5 16.04,42.43 a 8,8 0 0 1 -3.69,10 7.76,7.76 0 0 1 -10.68,-4.21 l -22.39,-59.33 a 7.7106825,7.7106825 0 0 1 14.43,-5.44 l 9.28,-3.51 a 17.63521,17.63521 0 0 0 -33,12.45 l 22.39,59.33 a 17.67,17.67 0 0 0 22.8,10.28 z"
         id="path8336" />
    </g>
  </g>
  <polygon
     class="cls-4"
     points="1796.41,106.02 1805.54,109.94 1819.69,116.02 1828.81,119.94 1996,191.78 1996,278.4 1896.95,508.92 1777.92,508.92 1627.09,444.12 1776.11,97.3 "
     id="polygon8338" />
  <rect
     class="cls-2"
     x="482.98856"
     y="1712.964"
     width="19.059999"
     height="187.92"
     transform="rotate(-66.74)"
     id="rect8340" />
  <rect
     class="cls-2"
     x="442.17499"
     y="1712.9722"
     width="19.059999"
     height="187.92"
     transform="rotate(-66.74)"
     id="rect8342" />
  <rect
     class="cls-2"
     x="399.15179"
     y="1712.9706"
     width="19.059999"
     height="187.92"
     transform="rotate(-66.74)"
     id="rect8344" />
  <rect
     class="cls-2"
     x="358.33835"
     y="1712.9689"
     width="19.059999"
     height="187.92"
     transform="rotate(-66.74)"
     id="rect8346" />
  <rect
     class="cls-2"
     x="315.31516"
     y="1712.9673"
     width="19.059999"
     height="187.92"
     transform="rotate(-66.74)"
     id="rect8348" />
  <rect
     class="cls-2"
     x="523.80835"
     y="1830.9774"
     width="19.059999"
     height="69.900002"
     transform="rotate(-66.74)"
     id="rect8350" />
  <path
     class="cls-3"
     d="m 1780.57,187.72 c 0.5,0.21 1,0.41 1.55,0.58 a 18,18 0 0 0 21.78,-10.2 l 17.9,-41.65 -9.12,-3.92 -17.9,41.66 a 8,8 0 0 1 -9.61,4.66 7.76,7.76 0 0 1 -4.77,-10.44 l 25,-58.26 a 7.71,7.71 0 1 1 14.16,6.08 l 9.12,3.92 a 17.631835,17.631835 0 1 0 -32.4,-13.92 l -25,58.26 a 17.68,17.68 0 0 0 9.29,23.23 z"
     id="path8352" />
  <g
     id="g9055">
    <rect
       class="cls-3"
       x="1352.2227"
       y="925.88257"
       width="26.449602"
       height="109.32169"
       transform="rotate(-24.25392)"
       id="rect8354"
       style="stroke-width:0.998098" />
    <path
       class="cls-3"
       d="m 1686,412.76 -23.28,-23 24.15,-10.91 1.87,32.67 a 1.61,1.61 0 0 1 -2.74,1.24 z"
       id="path8356" />
    <path
       class="cls-3"
       d="m 1637.5823,269.86138 -24.1483,10.91357 -20.8305,-46.09151 a 13.25,13.25 0 0 1 6.6174,-17.53097 v 0 a 13.25,13.25 0 0 1 17.531,6.61741 z"
       id="path8358" />
    <path
       class="cls-3"
       d="m 1653.0044,291.07395 -0.7473,0.3377 -29.1824,-64.57185 v 0 a 8.42,8.42 0 0 1 11.1404,4.20518 l 22.589,49.98258 a 7.59,7.59 0 0 1 -3.7906,10.04227 z"
       id="path8360" />
  </g>
</svg>
