<svg xmlns="http://www.w3.org/2000/svg" xmlns:xlink="http://www.w3.org/1999/xlink" viewBox="0 0 261.7 261.1"><defs><style>.cls-1{fill:url(#Degradado_sin_nombre_759);}</style><linearGradient id="Degradado_sin_nombre_759" x1="43.05" y1="31.39" x2="211.83" y2="343.55" gradientUnits="userSpaceOnUse"><stop offset="0.17" stop-color="#e51564"/><stop offset="1" stop-color="#3a3b9c"/></linearGradient></defs><g id="Capa_2" data-name="Capa 2"><g id="Capa_1-2" data-name="Capa 1"><path id="a5LFhX" class="cls-1" d="M0,138.14a38.2,38.2,0,0,1,2.7-5.39c3.17-4.47,7.71-6,13.09-6,23,.06,46,0,69,0h29c0-2.47,0-4.74,0-7,0-7.44,2.73-10.2,10.1-10.24h2.81c0-2.66-.15-5.19,0-7.7A18.28,18.28,0,0,1,144.3,84.52c2.38-.13,4.77,0,7.16-.07,6.31-.13,10.75-4,11.25-10.23a72.61,72.61,0,0,0,0-12c-.52-6-4.91-9.78-10.92-10-3.57-.12-7.24.08-10.67-.71-8.6-2-13.89-9.1-14-18.61S127,14.18,127,4.81c0-3.46,1.74-5.22,4.49-4.73s3.16,2.53,3.16,4.8q0,13,0,26.06c0,.86,0,1.71,0,2.56.39,6.78,4.74,10.91,11.54,11.09,3.39.09,6.89-.09,10.15.65,8.36,1.91,13.47,8.49,14.07,17.82a74.86,74.86,0,0,1-.19,12c-1,10.08-8.37,16.77-18.59,17.07-2.29.07-4.6,0-6.89,0a10.68,10.68,0,0,0-10.45,10.21c-.14,2.27,0,4.56,0,7.15,1.93,0,3.7-.06,5.46,0a8,8,0,0,1,7.93,8c.08,3,0,5.92,0,9.2h37a24.05,24.05,0,0,1,2.55.08,3.73,3.73,0,0,1,.3,7.4,19.06,19.06,0,0,1-3.3.19q-83.94,0-167.88,0a12.27,12.27,0,0,0-4.74.63c-2.86,1.22-4,3.67-4,6.8,0,12.77,0,25.55,0,38.33q0,32.44,0,64.9c0,5.77,2.44,8.27,8.17,8.27h230c5.74,0,8.18-2.49,8.18-8.25q0-51.24,0-102.47c0-5.78-2.42-8.23-8.16-8.23H210.07c-.68,0-1.36,0-2,0-2.79-.19-4.43-1.71-4.35-4s1.64-3.63,4.36-3.63c13.2,0,26.41-.14,39.61,0a13.78,13.78,0,0,1,14,14.24q.12,52.75,0,105.53c0,8-5.49,13.63-13.4,14.33-1,.09-2,.12-3.06.12q-114.34,0-228.7,0c-6.69,0-12-2-15.12-8.31-.52-1-.92-2.15-1.37-3.23Zm139.9-11.53v-9.27H121.64v9.27Zm-79.32,112V226.06c2.86,0,5.57.05,8.27,0s4.26-1.45,4.32-3.68-1.54-3.88-4.33-4-5.8,0-8.69,0c-4.89.06-7.33,2.48-7.4,7.42,0,4.34,0,8.69,0,13,.06,5.08,2.49,7.57,7.52,7.58q70.51,0,141,0c5.18,0,7.59-2.48,7.63-7.72,0-4,0-8,0-12,0-6.05-2.27-8.31-8.32-8.31H91.78a17.32,17.32,0,0,0-2,0A3.9,3.9,0,0,0,86,222.3a3.83,3.83,0,0,0,3.8,3.73c.85.08,1.7,0,2.56,0H201.13V238.6Zm-22.09-29c-4.77,0-9.53,0-14.3,0-5.11,0-7.5-2.4-7.57-7.49q-.09-6.51,0-13c.07-5.16,2.41-7.49,7.53-7.5q14.43,0,28.86,0c5,0,7.36,2.35,7.41,7.33,0,4.52,0,9,0,13.54s-2.43,7.06-7.11,7.14C48.37,209.69,43.43,209.62,38.49,209.62Zm-14-7.85H52.58V189.42H24.49Zm198.76-20.18c4.85,0,9.7,0,14.56,0,4.69.05,7.12,2.34,7.23,7s.12,9.37,0,14c-.12,4.51-2.53,6.9-7.06,6.94q-14.8.12-29.62,0c-4.67,0-7-2.49-7.09-7.15s-.06-9.19,0-13.79,2.47-7,7.17-7.06C213.37,181.55,218.31,181.59,223.25,181.59Zm-14.17,20.22h28.13v-12.4H209.08ZM230.3,218.4c2.55,0,5.1,0,7.65,0,4.44.09,6.92,2.3,7.07,6.65.16,4.92.16,9.86,0,14.79-.15,4.21-2.6,6.49-6.88,6.57-5.18.1-10.38.11-15.56,0-4.32-.1-6.77-2.6-6.85-6.9-.09-4.76-.1-9.52,0-14.28.09-4.28,2.59-6.7,6.92-6.82C225.19,218.34,227.75,218.4,230.3,218.4Zm-6.73,7.8v12.39H237.2V226.2ZM31.23,246.44c-2.55,0-5.1.07-7.65,0-4.38-.14-6.8-2.43-6.93-6.8-.14-4.76-.13-9.53,0-14.29.11-4.54,2.53-6.86,7.05-6.92,5.1-.07,10.2-.08,15.31,0,4.43.07,6.89,2.58,7,7,.07,4.68.08,9.36,0,14-.08,4.31-2.51,6.76-6.82,6.93C36.51,246.53,33.87,246.44,31.23,246.44Zm-6.82-7.82H38.1V226.24H24.41Zm7-93.84c2.55,0,5.11-.05,7.66,0,4.29.11,6.78,2.55,6.87,6.86.09,4.68.07,9.35,0,14-.06,4.47-2.45,7-6.91,7.1-5.18.13-10.38.13-15.56,0-4.39-.11-6.74-2.48-6.85-6.88-.13-4.76-.14-9.52,0-14.28.13-4.53,2.57-6.76,7.13-6.83C26.33,144.75,28.88,144.78,31.43,144.78ZM38.15,165V152.58H24.55V165ZM230.5,144.78c2.55,0,5.11-.05,7.66,0,4.17.1,6.65,2.23,6.82,6.32.2,5.09.2,10.21,0,15.3-.16,4.05-2.6,6.27-6.81,6.37-5.18.12-10.37.13-15.56,0-4.46-.11-6.84-2.63-6.91-7.1s-.06-9.18,0-13.78,2.54-7,7.14-7.11C225.4,144.75,228,144.78,230.5,144.78Zm6.76,7.85H223.59v12.31h13.67ZM97.85,144.78c2.46,0,4.93,0,7.4,0,4.47.08,7,2.43,7.09,6.91.12,4.76.13,9.53,0,14.28-.12,4.23-2.48,6.66-6.7,6.79-5.27.15-10.55.13-15.82,0-4.25-.1-6.66-2.41-6.81-6.65-.17-4.93-.18-9.88,0-14.8.18-4.26,2.66-6.44,6.92-6.53C92.57,144.73,95.21,144.78,97.85,144.78Zm6.73,7.83H90.8v12.31h13.78ZM164,172.81c-2.47,0-4.94.05-7.4,0-4.73-.12-7.16-2.57-7.23-7.33-.06-4.43,0-8.85,0-13.27.06-4.95,2.49-7.38,7.38-7.41s9.87,0,14.8,0c4.56,0,7,2.28,7.19,6.79.16,4.76.14,9.53,0,14.29-.13,4.49-2.57,6.79-7.09,6.93C169.05,172.87,166.5,172.81,164,172.81Zm7-7.81V152.63H157.16V165Zm-40-20.22c2.55,0,5.11,0,7.66,0,4.35.09,6.85,2.38,7,6.74.16,4.85.16,9.71,0,14.55-.14,4.23-2.54,6.58-6.79,6.69-5.27.14-10.55.15-15.82,0-4.23-.12-6.6-2.5-6.74-6.75-.15-4.84-.17-9.7,0-14.54.15-4.36,2.66-6.61,7-6.69C125.76,144.74,128.32,144.78,130.87,144.78Zm-7,20.2h13.82V152.64H123.91Zm-59.22-20.2c2.46,0,4.93,0,7.4,0,4.47.08,7,2.47,7.06,6.93.1,4.68.09,9.36,0,14-.08,4.38-2.41,6.89-6.72,7-5.27.15-10.55.14-15.82,0-4.26-.11-6.63-2.42-6.78-6.68-.17-4.84-.17-9.7,0-14.54.16-4.51,2.63-6.7,7.21-6.76C59.58,144.75,62.13,144.78,64.69,144.78ZM57.63,165H71.37V152.63H57.63Zm139.78-20.21c2.46,0,4.93,0,7.4,0,4.41.08,6.88,2.27,7,6.66q.27,7.4,0,14.8c-.17,4.13-2.52,6.4-6.67,6.52-5.27.15-10.55.14-15.82,0-4.34-.11-6.73-2.58-6.82-6.92-.1-4.76-.11-9.53,0-14.28.11-4.32,2.62-6.69,7-6.78C192.13,144.73,194.77,144.78,197.41,144.78ZM190.32,165h13.73V152.59H190.32Zm-76.46,16.59c2.55,0,5.1-.05,7.65,0,4.38.11,6.78,2.46,6.85,6.82q.12,7.14,0,14.28c-.07,4.27-2.31,6.73-6.55,6.86q-8,.26-16.06,0c-4.24-.13-6.56-2.61-6.62-6.81-.08-4.76-.07-9.52,0-14.28.07-4.33,2.5-6.72,6.83-6.89h7.9Zm-6.94,7.76v12.46h13.61V189.35ZM148,181.59c2.47,0,4.93,0,7.4,0,4.66.08,7.1,2.46,7.15,7.07s.06,9.35,0,14c-.06,4.23-2.34,6.74-6.55,6.88-5.35.17-10.71.16-16.06,0-4.25-.12-6.55-2.58-6.62-6.8q-.12-7.14,0-14.28c.06-4.46,2.5-6.81,7-6.9C142.9,181.55,145.45,181.59,148,181.59Zm-6.87,7.76v12.46H154.7V189.35Zm-61.39-7.76c2.55,0,5.1-.05,7.65,0,4.25.11,6.7,2.37,6.83,6.6q.23,7.39,0,14.79c-.12,4.12-2.45,6.46-6.58,6.58-5.36.15-10.72.16-16.07,0-4.19-.13-6.53-2.65-6.61-6.85q-.14-7.14,0-14.28c.08-4.31,2.57-6.73,6.89-6.84C74.47,181.54,77.11,181.59,79.74,181.59Zm-7,7.79v12.41H86.44V189.38Zm109.36-7.79c2.46,0,4.93,0,7.4,0,4.64.07,7.13,2.47,7.2,7.05s.08,9.35,0,14c-.07,4.31-2.48,6.81-6.81,6.92-5.18.13-10.37.11-15.56,0-4.4-.09-6.79-2.43-6.91-6.8q-.18-7.14,0-14.28c.1-4.53,2.52-6.83,7-6.92C177,181.55,179.59,181.59,182.14,181.59Zm-6.87,7.76v12.46h13.62V189.35Z"/></g></g></svg>